<svg xmlns="http://www.w3.org/2000/svg" width="30.089" height="28.603" viewBox="0 0 30.089 28.603">
  <g id="contact_2_" data-name="contact (2)" transform="translate(0.365 -12.463)">
    <g id="Gruppe_70" data-name="Gruppe 70" transform="translate(0.001 12.813)">
      <g id="Gruppe_69" data-name="Gruppe 69" transform="translate(0 0)">
        <path id="Pfad_57" data-name="Pfad 57" d="M28.126,12.813H7.608A1.25,1.25,0,0,0,6.36,14.062v5.659l-.938-1.407a1.451,1.451,0,0,0-1.959-.441l-1.93,1.161A2.832,2.832,0,0,0,.239,20.712c-.7,2.564-.182,6.981,6.3,13.466,5.156,5.151,9,6.538,11.65,6.538a6.841,6.841,0,0,0,1.817-.237,2.837,2.837,0,0,0,1.679-1.292l1.159-1.932A1.451,1.451,0,0,0,22.4,35.3l-4.622-3.081a1.459,1.459,0,0,0-1.953.317l-1.346,1.73a.469.469,0,0,1-.6.127l-.256-.141a15.394,15.394,0,0,1-4.01-3.15c-.229-.229-.437-.444-.632-.649H28.126a1.248,1.248,0,0,0,1.249-1.243V14.062A1.25,1.25,0,0,0,28.126,12.813ZM13.16,35.109l.249.137a1.443,1.443,0,0,0,1.849-.381l1.346-1.73a.476.476,0,0,1,.637-.1l4.622,3.081a.473.473,0,0,1,.143.637l-1.159,1.932a1.861,1.861,0,0,1-1.1.852c-2.315.637-6.366.1-12.514-6.051S.55,23.283,1.185,20.971a1.861,1.861,0,0,1,.852-1.1l1.932-1.16a.473.473,0,0,1,.637.143l3.082,4.622a.475.475,0,0,1-.1.637L5.854,25.462a1.442,1.442,0,0,0-.381,1.848l.137.249a16.233,16.233,0,0,0,3.317,4.234A16.266,16.266,0,0,0,13.16,35.109Zm15.235-5.9a.267.267,0,0,1-.269.264H8.1A12.349,12.349,0,0,1,6.47,27.091l-.141-.257a.467.467,0,0,1,.126-.6l1.731-1.346A1.458,1.458,0,0,0,8.5,22.937L7.339,21.19V14.062a.266.266,0,0,1,.269-.269H28.126a.266.266,0,0,1,.269.269V29.208Z" transform="translate(-0.001 -12.813)" fill="#dd9844" stroke="#dc9742" stroke-width="0.7"/>
        <path id="Pfad_58" data-name="Pfad 58" d="M166.241,50.687l-8.184,6.207a.661.661,0,0,1-.777,0L149.1,50.687a.49.49,0,1,0-.592.781l8.182,6.206a1.648,1.648,0,0,0,1.959,0l8.184-6.206a.49.49,0,0,0-.592-.781Z" transform="translate(-139.803 -48.42)" fill="#dd9844" stroke="#dc9742" stroke-width="0.7"/>
        <path id="Pfad_59" data-name="Pfad 59" d="M153.958,172.548l-5.016,5.372a.49.49,0,0,0,.716.668l5.016-5.374a.49.49,0,0,0-.716-.666Z" transform="translate(-140.271 -163.253)" fill="#dd9844" stroke="#dc9742" stroke-width="0.7"/>
        <path id="Pfad_60" data-name="Pfad 60" d="M370.8,172.234a.49.49,0,0,0-.716.668l5.015,5.372a.49.49,0,0,0,.716-.668Z" transform="translate(-348.722 -162.939)" fill="#dd9844" stroke="#dc9742" stroke-width="0.7"/>
      </g>
    </g>
  </g>
</svg>
