<svg xmlns="http://www.w3.org/2000/svg" width="24.057" height="31.578" viewBox="0 0 24.057 31.578">
  <g id="pin_12_" data-name="pin (12)" transform="translate(-60.971 0)">
    <g id="Gruppe_66" data-name="Gruppe 66" transform="translate(60.971 0)">
      <g id="Gruppe_65" data-name="Gruppe 65" transform="translate(0 0)">
        <path id="Pfad_55" data-name="Pfad 55" d="M84.443,8.274A11.771,11.771,0,0,0,76.812.58a12.1,12.1,0,0,0-15.841,11.5,11.929,11.929,0,0,0,2.4,7.212L73,31.578l9.617-12.267.012-.016A12.162,12.162,0,0,0,84.443,8.274Zm-3.288,9.9L73,28.579l-8.154-10.4a10.093,10.093,0,0,1-2.025-6.094A10.249,10.249,0,0,1,76.264,2.347a9.9,9.9,0,0,1,6.411,6.474A10.332,10.332,0,0,1,81.155,18.177Z" transform="translate(-60.971 0)" fill="#da9035"/>
      </g>
    </g>
    <g id="Gruppe_68" data-name="Gruppe 68" transform="translate(66.523 5.606)">
      <g id="Gruppe_67" data-name="Gruppe 67" transform="translate(0)">
        <path id="Pfad_56" data-name="Pfad 56" d="M157.472,90.895a6.478,6.478,0,1,0,6.478,6.478A6.485,6.485,0,0,0,157.472,90.895Zm0,11.1a4.627,4.627,0,1,1,4.627-4.627A4.632,4.632,0,0,1,157.472,102Z" transform="translate(-150.994 -90.895)" fill="#da9035"/>
      </g>
    </g>
  </g>
</svg>
