<svg xmlns="http://www.w3.org/2000/svg" width="271.03" height="152" viewBox="0 0 271.03 152">
  <g id="Gruppe_253" data-name="Gruppe 253" transform="translate(-310 -1137)">
    <g id="Gruppe_252" data-name="Gruppe 252" transform="translate(0 50.147)" opacity="0.4">
      <line id="Linie_192" data-name="Linie 192" x2="233.437" transform="translate(346.575 1204.353)" fill="none" stroke="#707070" stroke-width="1" opacity="0.3"/>
      <line id="Linie_193" data-name="Linie 193" x2="233.437" transform="translate(346.575 1176.89)" fill="none" stroke="#707070" stroke-width="1" opacity="0.3"/>
      <line id="Linie_194" data-name="Linie 194" x2="233.437" transform="translate(346.575 1149.426)" fill="none" stroke="#707070" stroke-width="1" opacity="0.3"/>
      <line id="Linie_195" data-name="Linie 195" x2="233.437" transform="translate(346.575 1121.963)" fill="none" stroke="#707070" stroke-width="1" opacity="0.3"/>
      <line id="Linie_198" data-name="Linie 198" x2="96.121" transform="translate(360.306 1108.232) rotate(90)" fill="none" stroke="#707070" stroke-width="1" opacity="0.3"/>
      <line id="Linie_199" data-name="Linie 199" x2="96.121" transform="translate(387.77 1108.232) rotate(90)" fill="none" stroke="#707070" stroke-width="1" opacity="0.3"/>
      <line id="Linie_200" data-name="Linie 200" x2="96.121" transform="translate(415.233 1108.232) rotate(90)" fill="none" stroke="#707070" stroke-width="1" opacity="0.3"/>
      <line id="Linie_201" data-name="Linie 201" x2="96.121" transform="translate(442.696 1108.232) rotate(90)" fill="none" stroke="#707070" stroke-width="1" opacity="0.3"/>
      <line id="Linie_202" data-name="Linie 202" x2="96.121" transform="translate(470.159 1108.232) rotate(90)" fill="none" stroke="#707070" stroke-width="1" opacity="0.3"/>
      <line id="Linie_203" data-name="Linie 203" x2="96.121" transform="translate(497.622 1108.232) rotate(90)" fill="none" stroke="#707070" stroke-width="1" opacity="0.3"/>
      <line id="Linie_204" data-name="Linie 204" x2="96.121" transform="translate(525.085 1108.232) rotate(90)" fill="none" stroke="#707070" stroke-width="1" opacity="0.3"/>
      <line id="Linie_205" data-name="Linie 205" x2="96.121" transform="translate(552.549 1108.232) rotate(90)" fill="none" stroke="#707070" stroke-width="1" opacity="0.3"/>
      <line id="Linie_208" data-name="Linie 208" x2="96.121" transform="translate(374.038 1108.232) rotate(90)" fill="none" stroke="#707070" stroke-width="1" opacity="0.3"/>
      <line id="Linie_209" data-name="Linie 209" x2="96.121" transform="translate(401.501 1108.232) rotate(90)" fill="none" stroke="#707070" stroke-width="1" opacity="0.3"/>
      <line id="Linie_210" data-name="Linie 210" x2="96.121" transform="translate(428.964 1108.232) rotate(90)" fill="none" stroke="#707070" stroke-width="1" opacity="0.3"/>
      <line id="Linie_211" data-name="Linie 211" x2="96.121" transform="translate(456.427 1108.232) rotate(90)" fill="none" stroke="#707070" stroke-width="1" opacity="0.3"/>
      <line id="Linie_212" data-name="Linie 212" x2="96.121" transform="translate(483.891 1108.232) rotate(90)" fill="none" stroke="#707070" stroke-width="1" opacity="0.3"/>
      <line id="Linie_213" data-name="Linie 213" x2="96.121" transform="translate(511.354 1108.232) rotate(90)" fill="none" stroke="#707070" stroke-width="1" opacity="0.3"/>
      <line id="Linie_214" data-name="Linie 214" x2="96.121" transform="translate(538.817 1108.232) rotate(90)" fill="none" stroke="#707070" stroke-width="1" opacity="0.3"/>
      <line id="Linie_215" data-name="Linie 215" x2="96.121" transform="translate(566.28 1108.232) rotate(90)" fill="none" stroke="#707070" stroke-width="1" opacity="0.3"/>
      <line id="Linie_216" data-name="Linie 216" x2="233.437" transform="translate(346.575 1190.621)" fill="none" stroke="#707070" stroke-width="1" opacity="0.3"/>
      <line id="Linie_217" data-name="Linie 217" x2="233.437" transform="translate(346.575 1163.158)" fill="none" stroke="#707070" stroke-width="1" opacity="0.3"/>
      <line id="Linie_218" data-name="Linie 218" x2="233.437" transform="translate(346.575 1135.695)" fill="none" stroke="#707070" stroke-width="1" opacity="0.3"/>
      <line id="Linie_219" data-name="Linie 219" x2="233.512" transform="translate(346.5 1108.232)" fill="none" stroke="#707070" stroke-width="1" opacity="0.3"/>
    </g>
    <path id="Pfad_357" data-name="Pfad 357" d="M346,1230.215l13.793,2.122,13.724-24.9,12.917,5.947,15.483-12.317,13.733,12.317,13.681-9.624,13.445,8.095,13.771-8.095h13.137l14.135-2.692,13.294-5.633,15.4-10.144,12.658,7.488,13.5-2.5,13.457,23.108,14.529-9.624,12.414-30.457" transform="translate(0 4)" fill="none" stroke="#707070" stroke-linecap="round" stroke-linejoin="round" stroke-width="3"/>
    <text id="_24_hour_Gold" data-name="24 hour Gold" transform="translate(580 1148)" fill="#2f2b29" font-size="11" font-family="Montserrat-Medium, Montserrat" font-weight="500" letter-spacing="0.007em" opacity="0.6"><tspan x="-72.743" y="0">24 hour Gold</tspan></text>
    <text id="_1590.50_-3.45" data-name="1590.50          -3.45" transform="translate(427 1148)" fill="#2f2b29" font-size="11" font-family="Montserrat-Medium, Montserrat" font-weight="500" letter-spacing="0.007em" opacity="0.6"><tspan x="-49.027" y="0" xml:space="preserve">1590.50          -3.45</tspan></text>
    <path id="Pfad_358" data-name="Pfad 358" d="M486.25,1109.829l3.438,4.847,3.438-4.847Z" transform="translate(-46.718 32.494)" fill="#2f2b29" opacity="0.6"/>
    <text id="_1605_1600_1595_1590" data-name="1605
1600
1595
1590" transform="translate(323 1176)" fill="#2f2b29" font-size="11" font-family="Montserrat-Medium, Montserrat" font-weight="500" letter-spacing="0.007em" opacity="0.6"><tspan x="-12.37" y="0">1605</tspan><tspan x="-12.881" y="27">1600</tspan><tspan x="-11.858" y="54">1595</tspan><tspan x="-12.37" y="81">1590</tspan></text>
    <line id="Linie_220" data-name="Linie 220" x2="13" transform="translate(378.5 1271.5)" fill="none" stroke="#707070" stroke-linecap="round" stroke-width="3"/>
    <text id="AUREUS_Price" data-name="AUREUS Price" transform="translate(378 1286)" fill="#2f2b29" font-size="11" font-family="Montserrat-Medium, Montserrat" font-weight="500" letter-spacing="0.007em" opacity="0.6"><tspan x="0" y="0">AUREUS Price</tspan></text>
  </g>
</svg>
